<?xml version="1.0" encoding="UTF-8"?>
<svg id="Layer_1_copy" data-name="Layer 1 copy" xmlns="http://www.w3.org/2000/svg" viewBox="0 0 80 101">
  <defs>
    <style>
      .cls-1 {
        fill: #fff;
      }
    </style>
  </defs>
  <path class="cls-1" d="m.55,24.4c25.38,0,50.76,0,76.14,0q2.8,0,2.8,2.86c0,2.5,0,5,0,7.5q0,2.68-2.64,2.68c-21.82,0-43.63,0-65.45,0-3.62,0-7.24,0-10.85,0v-13.04Z"/>
  <path class="cls-1" d="m.55,43.96c25.33,0,50.65,0,75.98,0,.55,0,1.1.03,1.64,0,.87-.04,1.32.29,1.32,1.22-.02,3.53-.02,7.06,0,10.6,0,.93-.44,1.26-1.32,1.22-.55-.02-1.1,0-1.64,0-25.33,0-50.65,0-75.98,0v-13.04Z"/>
  <path class="cls-1" d="m.55,63.53c25.52,0,51.04,0,76.57,0q2.37,0,2.37,2.29c0,3.58,0,7.17,0,10.75-25.87,0-51.75,0-77.62.03-1.13,0-1.38-.22-1.35-1.34.09-3.91.03-7.82.03-11.74Z"/>
</svg>