<?xml version="1.0" encoding="UTF-8"?>
<svg id="Layer_1" data-name="Layer 1" xmlns="http://www.w3.org/2000/svg" viewBox="0 0 80 80">
  <defs>
    <style>
      .cls-1 {
        fill: #726658;
      }

      .cls-2 {
        fill: #fff;
        stroke: #231f20;
        stroke-miterlimit: 10;
        stroke-width: .25px;
      }
    </style>
  </defs>
  <circle class="cls-1" cx="40" cy="40" r="40"/>
  <g>
    <path class="cls-2" d="m73.51,45.69l-12.36-7.19v3.93l-12.66-.12c-2.99-.03-5.58-2.08-6.29-4.99l-.97-3.99c-.72-2.94-7.33-4.89-10.36-4.82l-24.38.58v3.79l24.67-.32c2.95-.04,5.55,1.94,6.31,4.79l1.29,4.87c.74,2.78,6.76,4.88,9.64,4.99l12.75.46v3.82l12.36-5.8Z"/>
    <path class="cls-2" d="m6.49,45.69l12.36-7.19v3.93s12.66-.12,12.66-.12c2.99-.03,5.58-2.08,6.29-4.99l.97-3.99c.72-2.94,7.33-4.89,10.36-4.82l24.38.58v3.79s-24.67-.32-24.67-.32c-2.95-.04-5.55,1.94-6.31,4.79l-1.29,4.87c-.74,2.78-6.76,4.88-9.64,4.99l-12.75.46v3.82s-12.36-5.8-12.36-5.8Z"/>
  </g>
</svg>